<svg xmlns="http://www.w3.org/2000/svg" viewBox="0 0 256 256"><path d="M128 0C57.3 0 0 57.3 0 128s57.3 128 128 128 128-57.3 128-128S198.7 0 128 0z" fill="#000"/><path d="M168.1 82.2c-8.6-5.6-14.7-14.4-16.4-24.7-.3-1.8-.5-3.7-.5-5.5h-28.5l-.1 115.7c-.4 13.3-11.3 24-24.8 24-4.2 0-8.1-1.1-11.5-2.9-7.6-4.2-12.7-12.3-12.7-21.5 0-13.7 11.2-24.8 24.9-24.8 2.6 0 5 .4 7.3 1.1V114c-2.4-.3-4.9-.5-7.3-.5-29.5 0-53.5 24-53.5 53.5 0 18.1 9.1 34.1 22.9 43.7 8.6 5.9 19 9.4 30.2 9.4 29.5 0 53.5-24 53.5-53.5v-58c11.3 8.1 25.1 12.9 40 12.9V93.2c-8.1 0-15.7-2.3-22.2-6.4-.4-.3-.9-.5-1.3-.6z" fill="#fff"/></svg>