<svg xmlns="http://www.w3.org/2000/svg" viewBox="0 0 256 256"><path d="M128 0C57.3 0 0 57.3 0 128s57.3 128 128 128 128-57.3 128-128S198.7 0 128 0z" fill="#21759B"/><path d="M13.6 128c0 49.5 28.8 92.3 70.6 112.6L22.3 89.9c-5.6 11.9-8.7 25.2-8.7 38.1zm191.5-5.8c0-15.5-5.6-26.2-10.3-34.6-6.4-10.3-12.3-19.1-12.3-29.4 0-11.5 8.7-22.2 21.1-22.2h1.6C186.4 18.6 158.8 7.7 128 7.7c-41.1 0-77.3 21.1-98.4 53.1 2.8.1 5.4.1 7.6.1 12.3 0 31.4-1.5 31.4-1.5 6.4-.4 7.1 9 .7 9.7 0 0-6.4.7-13.5 1.1l42.9 127.6 25.8-77.3-18.3-50.3c-6.4-.4-12.4-1.1-12.4-1.1-6.4-.4-5.6-10.1.7-9.7 0 0 19.5 1.5 31.1 1.5 12.3 0 31.4-1.5 31.4-1.5 6.4-.4 7.1 9 .7 9.7 0 0-6.4.7-13.5 1.1l42.5 126.5 11.8-39.3c5.1-16.3 9-28 9-38.1zm-76.6 16.1l-35.3 102.6c10.5 3.1 21.7 4.8 33.2 4.8 13.7 0 26.8-2.4 39-6.7-.3-.5-.6-1-.8-1.6L128.5 138.3zm88.4-66.2c1.5 11.3.9 23.8-2.1 39.5l-23.6 68.3c23-13.4 38.4-38.5 38.4-67.3 0-14.8-3.8-28.8-10.5-41l-2.2.5z" fill="#fff"/></svg>