<svg xmlns="http://www.w3.org/2000/svg" viewBox="0 0 256 256"><path d="M12.3 148.4L82.3 27.1c15.7-27.2 50.6-36.5 77.8-20.8 27.2 15.7 36.5 50.6 20.8 77.8l-70 121.3c-15.7 27.2-50.6 36.5-77.8 20.8C6 210.6-3.4 175.6 12.3 148.4z" fill="#FBBC04"/><path d="M166.3 206.2c0 27.4 22.2 49.6 49.6 49.6s49.6-22.2 49.6-49.6-22.2-49.6-49.6-49.6-49.6 22.2-49.6 49.6z" fill="#4285F4"/><path d="M180.9 83.9L110.9 205.2c-15.7 27.2-5.4 62.2 21.8 77.8 27.2 15.7 62.2 5.4 77.8-21.8l70-121.3c15.7-27.2 5.4-62.2-21.8-77.8-27.2-15.6-62.1-5.3-77.8 21.8z" fill="#34A853"/></svg>