<svg xmlns="http://www.w3.org/2000/svg" viewBox="0 0 256 256"><g fill="none"><rect width="256" height="256" rx="28" fill="#0A66C2"/><path d="M73.6 107.3v99.4H40.8v-99.4h32.8zm1.9-30.5c0 9.5-7.1 17.1-18.5 17.1h-.2c-11 0-18.1-7.6-18.1-17.1 0-9.7 7.4-17.1 18.5-17.1 11.2 0 18.1 7.4 18.3 17.1zm125.2 49.8v80.1h-32.8v-74.7c0-18.8-6.7-31.6-23.5-31.6-12.8 0-20.5 8.6-23.8 17-1.2 3-1.5 7.1-1.5 11.3v78h-32.8s.4-126.6 0-139.7h32.8v19.8c4.4-6.7 12.2-16.3 29.6-16.3 21.6 0 37.9 14.1 37.9 44.5v91.7h.1z" fill="#fff"/></g></svg>