<svg xmlns="http://www.w3.org/2000/svg" viewBox="0 0 256 292"><path d="M223.8 57.5s-1.6.5-4.2 1.3c-.5-1.5-1.1-3.3-2-5.2-3-5.7-7.3-8.7-12.5-8.7h-.1c-.4 0-.7.1-1.1.1-1.5-1.8-3.4-3.5-5.7-4.8-7.1-4.1-15.7-3-23.3 3.1-9 7.2-15.9 18.5-19.6 33.3l-18.1 5.6c-5.3 1.7-5.5 1.8-6.2 6.8-.5 3.7-14.4 111-14.4 111l116.7 21.8L256 175.7s-32.2-118.2-32.2-118.2zM185.2 69l-20.9 6.5c2-7.7 5.8-15.4 10.5-20.4 1.8-1.9 4.2-4 7-5.2 2.7 5.8 3.5 14 3.4 19.1zm-14.7-30.8c2.3 0 4.2.5 5.8 1.5-2.6 1.3-5.2 3.5-7.6 6.2-6.2 6.6-11 16.8-12.9 26.7l-17.5 5.4c4.9-16.7 16.2-39.8 32.2-39.8zM164 135.2c.7 11.5 31 14 32.7 41.1 1.3 21.3-11.3 35.9-29.6 37-22 1.4-34.1-11.6-34.1-11.6l4.7-19.9s12.1 9.2 21.9 8.5c6.4-.4 8.7-5.6 8.5-9.3-.9-15-25.6-14.1-27.1-38.9-1.3-20.8 12.4-41.9 42.6-43.8 11.7-.7 17.6 2.2 17.6 2.2l-7 26.1s-7.7-3.5-16.8-2.9c-13.4.9-13.5 9.3-13.4 11.5z" fill="#95BF47"/><path d="M193.2 60.3c-.1-5-1-12-3.4-18.9 8.5 1.6 12.6 11.2 14.4 16.9l-11 2zm37.6 159.7l22.9-56.5s-9.9-21.2-27.5-21.2c-1.2 0-2.4.1-3.7.4 19.2 2.8 22.2 26.6 22.2 26.6l-16.3 38.3 2.4 12.4z" fill="#5E8E3E"/><path d="M136.6 280.7L82.9 265.9s24.1-163 24.3-164.5c.2-1.5 1.1-2.3 2.5-2.3s30.9 2.1 30.9 2.1-13.9 107-14.4 111l-7.4 46.3z" fill="#95BF47"/></svg>