<svg xmlns="http://www.w3.org/2000/svg" viewBox="0 0 512 512"><path d="M267.4 211.6c-25.1 23.7-40.8 57.3-40.8 94.6 0 37.3 15.7 70.9 40.8 94.6l-16.8 15.9C222.2 389.1 204 349.5 204 306.2s18.2-82.9 46.6-110.5l16.8 15.9zm88.2-41.8v-60.5c14.5-7.6 24.5-22.8 24.5-40.3 0-25.2-20.5-45.7-45.7-45.7S289 43.8 289 69c0 17.5 10 32.7 24.5 40.3v60.5c-28.2 5-53.3 19-72.3 39.8l-97.3-75.5c2.3-7 3.5-14.5 3.5-22.2C147.4 50.2 97.2 0 35.5 0S-76.4 50.2-76.4 111.9c0 61.7 50.2 111.9 111.9 111.9 16.2 0 31.6-3.5 45.6-9.8l94.2 73.1c-9.6 18.8-15.1 40-15.1 62.5 0 75.6 61.4 137 137 137s137-61.4 137-137c0-75.6-61.4-137-137-137-24.7 0-47.8 6.6-67.8 18.1z" fill="#FF7A59" transform="translate(76.4)"/></svg>